<?xml version="1.0" encoding="UTF-8" standalone="no"?>
<!-- Created with Inkscape (http://www.inkscape.org/) -->

<svg
   width="112.43359mm"
   height="112.43358mm"
   viewBox="0 0 112.43359 112.43358"
   version="1.1"
   id="svg1"
   xmlns="http://www.w3.org/2000/svg"
   xmlns:svg="http://www.w3.org/2000/svg">
  <defs
     id="defs1" />
  <g
     id="layer1"
     transform="translate(-44.196616,-52.994821)">
    <rect
       style="opacity:0;fill:#ffffff;stroke:#333333;stroke-width:0.1;stroke-linecap:round;stroke-linejoin:round;stroke-dasharray:none"
       id="rect14"
       width="112.33358"
       height="112.33358"
       x="44.246616"
       y="53.044819" />
    <g
       id="g14"
       transform="matrix(1.1034456,0,0,1.1034456,-4.5056612,-7.6500633)">
      <path
         id="path3"
         style="opacity:1;fill:#333333;stroke:#333333;stroke-width:0.1;stroke-linecap:round;stroke-linejoin:round;stroke-dasharray:none"
         d="m 95.085594,68.395251 c -3.443222,0 -6.781813,0.447028 -9.964433,1.280287 l 0.264631,0.987604 c 3.097794,-0.809578 6.347672,-1.243768 9.699802,-1.243768 3.078407,0 6.067566,0.373216 8.935016,1.059585 l 0.53456,-0.925681 c -3.03382,-0.75212 -6.203744,-1.158027 -9.469576,-1.158027 z m -10.063935,76.149289 -0.264102,0.9876 c 3.292188,0.89614 6.752614,1.3835 10.328037,1.3835 3.530187,0 6.948396,-0.47368 10.203126,-1.34803 l -0.52715,-0.91298 c -3.09062,0.80552 -6.332343,1.23636 -9.675976,1.23636 -3.484563,0 -6.856437,-0.47397 -10.063935,-1.34645 z" />
      <g
         id="g25">
        <path
           style="opacity:1;fill:#333333;stroke:#333333;stroke-width:0.6;stroke-linecap:square;stroke-dasharray:none"
           d="m 76.112737,148.16866 c 2.574312,0.24759 4.750562,-0.79306 5.798172,-2.45179 -1.157669,-1.63488 -3.253108,-2.73195 -5.610165,-3.01084 -2.344946,-0.27201 -4.75108,0.30039 -6.096689,1.71595 0.998818,1.98765 3.33141,3.49313 5.908682,3.74668 z m -8.532945,-6.69768 c 2.475051,0.74428 4.80879,0.12823 6.15338,-1.30555 -0.824779,-1.81214 -2.659122,-3.26498 -4.892473,-3.99003 -2.221292,-0.71549 -4.685612,-0.65082 -6.287048,0.44946 0.566635,2.14818 2.55003,4.09561 5.026141,4.84612 z m -6.96531,-8.27802 c 2.255056,1.26103 4.651464,1.13246 6.256312,0.0119 -0.416463,-1.9173 -1.866184,-3.69849 -3.856656,-4.88532 -0.594617,-0.35268 -1.229384,-0.6468 -1.879021,-0.86633 -1.518386,-0.51043 -3.080361,-0.60555 -4.341767,-0.11873 0.01734,0.69524 0.177063,1.42451 0.476099,2.14365 0.639339,1.52932 1.849886,2.87447 3.345033,3.71485 z m -4.909263,-9.65932 c 1.904347,1.76226 4.26452,2.18951 6.090988,1.46753 0.04493,-1.95191 -0.942752,-4.0237 -2.614033,-5.65346 -1.666352,-1.61746 -3.899801,-2.66949 -5.831456,-2.40286 -0.456819,2.18103 0.454786,4.82311 2.354501,6.58879 z M 53.156312,112.9964 c 1.455652,2.14624 3.65759,3.10699 5.600218,2.82347 0.491755,-1.90115 -0.0032,-4.15273 -1.266409,-6.12062 -1.260197,-1.95318 -3.202721,-3.4802 -5.143891,-3.65484 -0.936345,2.02372 -0.641165,4.80216 0.810082,6.95199 z m -0.109034,-10.84355 c 0.08898,0.2308 0.188386,0.45533 0.297603,0.67256 0,0 0,0 0,0 1.022127,2.03328 2.769235,3.19491 4.522504,3.33883 0.436859,-0.83916 0.673147,-1.81711 0.705118,-2.8624 0.03454,-1.10255 -0.158918,-2.26468 -0.55694,-3.381787 -0.786085,-2.190247 -2.334214,-4.116378 -4.187901,-4.723968 -1.367961,1.760727 -1.708356,4.53414 -0.780384,6.956765 z m 2.337028,-10.592155 c 0.367882,2.567065 1.927118,4.398119 3.798302,4.995546 1.276578,-1.496264 1.815521,-3.738577 1.541395,-6.059494 -0.277688,-2.305359 -1.353031,-4.529669 -3.018339,-5.538348 -1.730153,1.406718 -2.683776,4.033425 -2.321358,6.602296 z m 4.66277,-9.787273 c -0.230859,2.582406 0.87703,4.713878 2.562993,5.71683 1.57566,-1.162273 2.603031,-3.206531 2.872034,-5.511887 0.0316,-0.276353 0.05197,-0.554765 0.06083,-0.833394 0,0 0,0 0,0 0.0582,-2.027889 -0.48443,-4.042701 -1.688716,-5.252756 -0.918208,0.432648 -1.77292,1.170641 -2.445379,2.136403 -0.762629,1.096753 -1.23947,2.409679 -1.361764,3.744804 z m 6.858925,-8.404181 c -0.863022,2.452917 -0.296007,4.782803 1.101088,6.162527 1.797746,-0.735355 3.283144,-2.448897 4.112069,-4.615504 0.817907,-2.152762 0.923438,-4.623301 -0.06428,-6.299619 -2.195504,0.421379 -4.280652,2.301988 -5.148875,4.752596 z m 8.729229,-6.439115 c -1.443706,2.159572 -1.471193,4.5587 -0.460684,6.240554 1.92543,-0.268375 3.781914,-1.560525 5.117683,-3.445077 1.320245,-1.87186 2.046972,-4.236488 1.517673,-6.106635 -2.23435,-0.148198 -4.726005,1.154365 -6.174672,3.311158 z"
           id="path22" />
        <path
           style="opacity:1;fill:#333333;stroke:#333333;stroke-width:0.637904;stroke-linecap:square;stroke-dasharray:none"
           d="m 75.42345,135.65969 c -1.103916,-2.56848 -0.604727,-5.14323 0.839379,-6.81283 1.96221,0.53419 3.61938,2.13381 4.644122,4.37096 1.007872,2.21442 1.315721,4.92012 0.404358,6.90105 -2.376668,-0.1356 -4.78091,-1.8996 -5.887859,-4.45918 z m -8.133941,-8.67096 c -0.226364,-2.20441 0.541904,-4.14453 1.881378,-5.4043 0,0 0,0 0,0 0.324933,-0.30589 0.676762,-0.56632 1.045702,-0.7819 0.06479,0.0432 0.128749,0.0877 0.19184,0.13365 1.541535,1.13228 2.516227,3.05683 2.815429,5.35984 0.302653,2.37471 -0.167813,5.08472 -1.577936,6.71209 -2.248565,-0.81305 -4.063887,-3.23239 -4.356413,-6.01938 z m -4.917586,-10.9092 c 0.673069,-2.73313 2.668952,-4.44343 4.834491,-4.8621 1.207435,1.61804 1.515975,3.84126 0.999729,6.20536 -0.512689,2.32072 -1.830905,4.73494 -3.70439,5.82707 -1.88714,-1.52797 -2.795259,-4.4418 -2.12983,-7.17033 z M 61.341979,104.1695 c 0.07617,-0.11776 0.155347,-0.23291 0.23739,-0.34531 0,0 0,0 0,0 1.552038,-2.12501 3.858062,-2.96613 5.922942,-2.67158 0.320804,1.00792 0.356953,2.10263 0.125639,3.22282 -0.205267,0.99585 -0.620606,2.00752 -1.208531,2.97223 -1.247626,2.03603 -3.28261,3.87429 -5.417038,4.28481 -1.27375,-2.05325 -1.183232,-5.09714 0.339598,-7.46297 z M 64.25468,92.576029 c 2.220142,-1.740258 4.839698,-1.850517 6.800549,-0.839249 -0.04769,2.006317 -1.165626,3.948783 -3.034064,5.497274 -1.843545,1.520318 -4.368402,2.59328 -6.520796,2.284123 -0.533963,-2.357003 0.544974,-5.202326 2.754311,-6.942148 z m 6.629262,-9.999666 c 2.699154,-0.876865 5.191284,-0.03816 6.6631,1.6021 -0.749865,1.855943 -2.452774,3.251809 -4.71733,4.060864 -0.20858,0.07394 -0.421016,0.14246 -0.636412,0.205226 0,0 0,0 0,0 -2.104641,0.615446 -4.53065,0.678663 -6.264917,-0.217974 0.130965,-1.146474 0.657365,-2.327592 1.528673,-3.352289 0.904421,-1.060396 2.107422,-1.866007 3.426886,-2.297927 z m 9.78083,-7.002844 c 2.843587,0.15262 4.850443,1.839757 5.620129,3.910197 -1.360111,1.439387 -3.438201,2.127493 -5.842296,2.069734 -2.361232,-0.0625 -4.995781,-0.865487 -6.442,-2.480698 1.124491,-2.162751 3.831585,-3.644906 6.664167,-3.499233 z"
           id="path23" />
      </g>
      <path
         id="path25"
         style="opacity:1;fill:#333333;stroke:#333333;stroke-width:0.600001;stroke-linecap:square;stroke-dasharray:none"
         d="M 95.083085,83.05953 A 22.846775,22.846775 0 0 0 72.236418,105.9062 22.846775,22.846775 0 0 0 95.083085,128.75286 22.846775,22.846775 0 0 0 117.92975,105.9062 22.846775,22.846775 0 0 0 95.083085,83.05953 Z m 0,1.515669 A 21.330959,21.330959 0 0 1 116.41408,105.9062 21.330959,21.330959 0 0 1 95.083085,127.23719 21.330959,21.330959 0 0 1 73.752087,105.9062 21.330959,21.330959 0 0 1 95.083085,84.575199 Z" />
      <g
         id="g27"
         transform="matrix(-1,0,0,1,190.16627,0)">
        <path
           style="opacity:1;fill:#333333;stroke:#333333;stroke-width:0.6;stroke-linecap:square;stroke-dasharray:none"
           d="m 76.112737,148.16866 c 2.574312,0.24759 4.750562,-0.79306 5.798172,-2.45179 -1.157669,-1.63488 -3.253108,-2.73195 -5.610165,-3.01084 -2.344946,-0.27201 -4.75108,0.30039 -6.096689,1.71595 0.998818,1.98765 3.33141,3.49313 5.908682,3.74668 z m -8.532945,-6.69768 c 2.475051,0.74428 4.80879,0.12823 6.15338,-1.30555 -0.824779,-1.81214 -2.659122,-3.26498 -4.892473,-3.99003 -2.221292,-0.71549 -4.685612,-0.65082 -6.287048,0.44946 0.566635,2.14818 2.55003,4.09561 5.026141,4.84612 z m -6.96531,-8.27802 c 2.255056,1.26103 4.651464,1.13246 6.256312,0.0119 -0.416463,-1.9173 -1.866184,-3.69849 -3.856656,-4.88532 -0.594617,-0.35268 -1.229384,-0.6468 -1.879021,-0.86633 -1.518386,-0.51043 -3.080361,-0.60555 -4.341767,-0.11873 0.01734,0.69524 0.177063,1.42451 0.476099,2.14365 0.639339,1.52932 1.849886,2.87447 3.345033,3.71485 z m -4.909263,-9.65932 c 1.904347,1.76226 4.26452,2.18951 6.090988,1.46753 0.04493,-1.95191 -0.942752,-4.0237 -2.614033,-5.65346 -1.666352,-1.61746 -3.899801,-2.66949 -5.831456,-2.40286 -0.456819,2.18103 0.454786,4.82311 2.354501,6.58879 z M 53.156312,112.9964 c 1.455652,2.14624 3.65759,3.10699 5.600218,2.82347 0.491755,-1.90115 -0.0032,-4.15273 -1.266409,-6.12062 -1.260197,-1.95318 -3.202721,-3.4802 -5.143891,-3.65484 -0.936345,2.02372 -0.641165,4.80216 0.810082,6.95199 z m -0.109034,-10.84355 c 0.08898,0.2308 0.188386,0.45533 0.297603,0.67256 0,0 0,0 0,0 1.022127,2.03328 2.769235,3.19491 4.522504,3.33883 0.436859,-0.83916 0.673147,-1.81711 0.705118,-2.8624 0.03454,-1.10255 -0.158918,-2.26468 -0.55694,-3.381787 -0.786085,-2.190247 -2.334214,-4.116378 -4.187901,-4.723968 -1.367961,1.760727 -1.708356,4.53414 -0.780384,6.956765 z m 2.337028,-10.592155 c 0.367882,2.567065 1.927118,4.398119 3.798302,4.995546 1.276578,-1.496264 1.815521,-3.738577 1.541395,-6.059494 -0.277688,-2.305359 -1.353031,-4.529669 -3.018339,-5.538348 -1.730153,1.406718 -2.683776,4.033425 -2.321358,6.602296 z m 4.66277,-9.787273 c -0.230859,2.582406 0.87703,4.713878 2.562993,5.71683 1.57566,-1.162273 2.603031,-3.206531 2.872034,-5.511887 0.0316,-0.276353 0.05197,-0.554765 0.06083,-0.833394 0,0 0,0 0,0 0.0582,-2.027889 -0.48443,-4.042701 -1.688716,-5.252756 -0.918208,0.432648 -1.77292,1.170641 -2.445379,2.136403 -0.762629,1.096753 -1.23947,2.409679 -1.361764,3.744804 z m 6.858925,-8.404181 c -0.863022,2.452917 -0.296007,4.782803 1.101088,6.162527 1.797746,-0.735355 3.283144,-2.448897 4.112069,-4.615504 0.817907,-2.152762 0.923438,-4.623301 -0.06428,-6.299619 -2.195504,0.421379 -4.280652,2.301988 -5.148875,4.752596 z m 8.729229,-6.439115 c -1.443706,2.159572 -1.471193,4.5587 -0.460684,6.240554 1.92543,-0.268375 3.781914,-1.560525 5.117683,-3.445077 1.320245,-1.87186 2.046972,-4.236488 1.517673,-6.106635 -2.23435,-0.148198 -4.726005,1.154365 -6.174672,3.311158 z"
           id="path26" />
        <path
           style="opacity:1;fill:#333333;stroke:#333333;stroke-width:0.637904;stroke-linecap:square;stroke-dasharray:none"
           d="m 75.42345,135.65969 c -1.103916,-2.56848 -0.604727,-5.14323 0.839379,-6.81283 1.96221,0.53419 3.61938,2.13381 4.644122,4.37096 1.007872,2.21442 1.315721,4.92012 0.404358,6.90105 -2.376668,-0.1356 -4.78091,-1.8996 -5.887859,-4.45918 z m -8.133941,-8.67096 c -0.226364,-2.20441 0.541904,-4.14453 1.881378,-5.4043 0,0 0,0 0,0 0.324933,-0.30589 0.676762,-0.56632 1.045702,-0.7819 0.06479,0.0432 0.128749,0.0877 0.19184,0.13365 1.541535,1.13228 2.516227,3.05683 2.815429,5.35984 0.302653,2.37471 -0.167813,5.08472 -1.577936,6.71209 -2.248565,-0.81305 -4.063887,-3.23239 -4.356413,-6.01938 z m -4.917586,-10.9092 c 0.673069,-2.73313 2.668952,-4.44343 4.834491,-4.8621 1.207435,1.61804 1.515975,3.84126 0.999729,6.20536 -0.512689,2.32072 -1.830905,4.73494 -3.70439,5.82707 -1.88714,-1.52797 -2.795259,-4.4418 -2.12983,-7.17033 z M 61.341979,104.1695 c 0.07617,-0.11776 0.155347,-0.23291 0.23739,-0.34531 0,0 0,0 0,0 1.552038,-2.12501 3.858062,-2.96613 5.922942,-2.67158 0.320804,1.00792 0.356953,2.10263 0.125639,3.22282 -0.205267,0.99585 -0.620606,2.00752 -1.208531,2.97223 -1.247626,2.03603 -3.28261,3.87429 -5.417038,4.28481 -1.27375,-2.05325 -1.183232,-5.09714 0.339598,-7.46297 z M 64.25468,92.576029 c 2.220142,-1.740258 4.839698,-1.850517 6.800549,-0.839249 -0.04769,2.006317 -1.165626,3.948783 -3.034064,5.497274 -1.843545,1.520318 -4.368402,2.59328 -6.520796,2.284123 -0.533963,-2.357003 0.544974,-5.202326 2.754311,-6.942148 z m 6.629262,-9.999666 c 2.699154,-0.876865 5.191284,-0.03816 6.6631,1.6021 -0.749865,1.855943 -2.452774,3.251809 -4.71733,4.060864 -0.20858,0.07394 -0.421016,0.14246 -0.636412,0.205226 0,0 0,0 0,0 -2.104641,0.615446 -4.53065,0.678663 -6.264917,-0.217974 0.130965,-1.146474 0.657365,-2.327592 1.528673,-3.352289 0.904421,-1.060396 2.107422,-1.866007 3.426886,-2.297927 z m 9.78083,-7.002844 c 2.843587,0.15262 4.850443,1.839757 5.620129,3.910197 -1.360111,1.439387 -3.438201,2.127493 -5.842296,2.069734 -2.361232,-0.0625 -4.995781,-0.865487 -6.442,-2.480698 1.124491,-2.162751 3.831585,-3.644906 6.664167,-3.499233 z"
           id="path27" />
      </g>
      <g
         id="g2"
         transform="translate(0.28461205,-0.23231066)"
         style="fill:#333333;stroke:#333333">
        <text
           xml:space="preserve"
           style="font-style:normal;font-variant:normal;font-weight:normal;font-stretch:normal;font-size:23.9129px;font-family:OptimusPrincepsSemiBold;-inkscape-font-specification:'OptimusPrincepsSemiBold, Normal';font-variant-ligatures:normal;font-variant-caps:normal;font-variant-numeric:normal;font-variant-east-asian:normal;fill:#333333;stroke:#333333;stroke-width:0.445456;stroke-linecap:square"
           x="83.695724"
           y="119.33875"
           id="text1"><tspan
             id="tspan1"
             style="fill:#333333;stroke:#333333;stroke-width:0.445455"
             x="83.695724"
             y="119.33875">FS</tspan></text>
        <text
           xml:space="preserve"
           style="font-style:normal;font-variant:normal;font-weight:normal;font-stretch:normal;font-size:8.14145px;font-family:OptimusPrincepsSemiBold;-inkscape-font-specification:'OptimusPrincepsSemiBold, Normal';font-variant-ligatures:normal;font-variant-caps:normal;font-variant-numeric:normal;font-variant-east-asian:normal;fill:#333333;stroke:#333333;stroke-width:0.151662;stroke-linecap:square"
           x="85.465118"
           y="98.6278"
           id="text2"><tspan
             id="tspan2"
             style="fill:#333333;stroke:#333333;stroke-width:0.151661"
             x="85.465118"
             y="98.6278">UCD</tspan></text>
      </g>
    </g>
  </g>
</svg>
