<?xml version="1.0" encoding="UTF-8" standalone="no"?>
<!-- Created with Inkscape (http://www.inkscape.org/) -->

<svg
   width="96.173187mm"
   height="94.010895mm"
   viewBox="0 0 96.173187 94.010895"
   version="1.1"
   id="svg1"
   xmlns="http://www.w3.org/2000/svg"
   xmlns:svg="http://www.w3.org/2000/svg">
  <defs
     id="defs1" />
  <g
     id="layer1"
     transform="translate(-33.921123,-65.112688)">
    <g
       id="g7"
       transform="translate(-18.405693,2.9065331)">
      <path
         id="path3"
         style="fill:#333333;stroke:#333333;stroke-width:0.110345;stroke-linecap:round;stroke-linejoin:round;stroke-dasharray:none"
         d="m 100.41612,67.820375 c -3.799409,0 -7.483363,0.493272 -10.995211,1.412728 l 0.292006,1.089767 c 3.418247,-0.893325 7.004311,-1.372431 10.703205,-1.372431 3.39685,0 6.69523,0.411824 9.8593,1.169195 l 0.58986,-1.021439 c -3.34765,-0.829923 -6.84549,-1.27782 -10.44916,-1.27782 z m -11.105006,84.026595 -0.291422,1.08977 c 3.632751,0.98884 7.451142,1.52661 11.396428,1.52661 3.89537,0 7.66718,-0.52268 11.25859,-1.48747 l -0.58168,-1.00743 c -3.41033,0.88885 -6.98739,1.36426 -10.67691,1.36426 -3.845027,0 -7.565706,-0.523 -11.105006,-1.48574 z" />
      <g
         id="g25"
         transform="matrix(1.1034456,0,0,1.1034456,-4.5056612,-7.6500633)">
        <path
           style="opacity:1;fill:#333333;stroke:#333333;stroke-width:0.6;stroke-linecap:square;stroke-dasharray:none"
           d="m 76.112737,148.16866 c 2.574312,0.24759 4.750562,-0.79306 5.798172,-2.45179 -1.157669,-1.63488 -3.253108,-2.73195 -5.610165,-3.01084 -2.344946,-0.27201 -4.75108,0.30039 -6.096689,1.71595 0.998818,1.98765 3.33141,3.49313 5.908682,3.74668 z m -8.532945,-6.69768 c 2.475051,0.74428 4.80879,0.12823 6.15338,-1.30555 -0.824779,-1.81214 -2.659122,-3.26498 -4.892473,-3.99003 -2.221292,-0.71549 -4.685612,-0.65082 -6.287048,0.44946 0.566635,2.14818 2.55003,4.09561 5.026141,4.84612 z m -6.96531,-8.27802 c 2.255056,1.26103 4.651464,1.13246 6.256312,0.0119 -0.416463,-1.9173 -1.866184,-3.69849 -3.856656,-4.88532 -0.594617,-0.35268 -1.229384,-0.6468 -1.879021,-0.86633 -1.518386,-0.51043 -3.080361,-0.60555 -4.341767,-0.11873 0.01734,0.69524 0.177063,1.42451 0.476099,2.14365 0.639339,1.52932 1.849886,2.87447 3.345033,3.71485 z m -4.909263,-9.65932 c 1.904347,1.76226 4.26452,2.18951 6.090988,1.46753 0.04493,-1.95191 -0.942752,-4.0237 -2.614033,-5.65346 -1.666352,-1.61746 -3.899801,-2.66949 -5.831456,-2.40286 -0.456819,2.18103 0.454786,4.82311 2.354501,6.58879 z M 53.156312,112.9964 c 1.455652,2.14624 3.65759,3.10699 5.600218,2.82347 0.491755,-1.90115 -0.0032,-4.15273 -1.266409,-6.12062 -1.260197,-1.95318 -3.202721,-3.4802 -5.143891,-3.65484 -0.936345,2.02372 -0.641165,4.80216 0.810082,6.95199 z m -0.109034,-10.84355 c 0.08898,0.2308 0.188386,0.45533 0.297603,0.67256 0,0 0,0 0,0 1.022127,2.03328 2.769235,3.19491 4.522504,3.33883 0.436859,-0.83916 0.673147,-1.81711 0.705118,-2.8624 0.03454,-1.10255 -0.158918,-2.26468 -0.55694,-3.381787 -0.786085,-2.190247 -2.334214,-4.116378 -4.187901,-4.723968 -1.367961,1.760727 -1.708356,4.53414 -0.780384,6.956765 z m 2.337028,-10.592155 c 0.367882,2.567065 1.927118,4.398119 3.798302,4.995546 1.276578,-1.496264 1.815521,-3.738577 1.541395,-6.059494 -0.277688,-2.305359 -1.353031,-4.529669 -3.018339,-5.538348 -1.730153,1.406718 -2.683776,4.033425 -2.321358,6.602296 z m 4.66277,-9.787273 c -0.230859,2.582406 0.87703,4.713878 2.562993,5.71683 1.57566,-1.162273 2.603031,-3.206531 2.872034,-5.511887 0.0316,-0.276353 0.05197,-0.554765 0.06083,-0.833394 0,0 0,0 0,0 0.0582,-2.027889 -0.48443,-4.042701 -1.688716,-5.252756 -0.918208,0.432648 -1.77292,1.170641 -2.445379,2.136403 -0.762629,1.096753 -1.23947,2.409679 -1.361764,3.744804 z m 6.858925,-8.404181 c -0.863022,2.452917 -0.296007,4.782803 1.101088,6.162527 1.797746,-0.735355 3.283144,-2.448897 4.112069,-4.615504 0.817907,-2.152762 0.923438,-4.623301 -0.06428,-6.299619 -2.195504,0.421379 -4.280652,2.301988 -5.148875,4.752596 z m 8.729229,-6.439115 c -1.443706,2.159572 -1.471193,4.5587 -0.460684,6.240554 1.92543,-0.268375 3.781914,-1.560525 5.117683,-3.445077 1.320245,-1.87186 2.046972,-4.236488 1.517673,-6.106635 -2.23435,-0.148198 -4.726005,1.154365 -6.174672,3.311158 z"
           id="path22" />
        <path
           style="opacity:1;fill:#333333;stroke:#333333;stroke-width:0.637904;stroke-linecap:square;stroke-dasharray:none"
           d="m 75.42345,135.65969 c -1.103916,-2.56848 -0.604727,-5.14323 0.839379,-6.81283 1.96221,0.53419 3.61938,2.13381 4.644122,4.37096 1.007872,2.21442 1.315721,4.92012 0.404358,6.90105 -2.376668,-0.1356 -4.78091,-1.8996 -5.887859,-4.45918 z m -8.133941,-8.67096 c -0.226364,-2.20441 0.541904,-4.14453 1.881378,-5.4043 0,0 0,0 0,0 0.324933,-0.30589 0.676762,-0.56632 1.045702,-0.7819 0.06479,0.0432 0.128749,0.0877 0.19184,0.13365 1.541535,1.13228 2.516227,3.05683 2.815429,5.35984 0.302653,2.37471 -0.167813,5.08472 -1.577936,6.71209 -2.248565,-0.81305 -4.063887,-3.23239 -4.356413,-6.01938 z m -4.917586,-10.9092 c 0.673069,-2.73313 2.668952,-4.44343 4.834491,-4.8621 1.207435,1.61804 1.515975,3.84126 0.999729,6.20536 -0.512689,2.32072 -1.830905,4.73494 -3.70439,5.82707 -1.88714,-1.52797 -2.795259,-4.4418 -2.12983,-7.17033 z M 61.341979,104.1695 c 0.07617,-0.11776 0.155347,-0.23291 0.23739,-0.34531 0,0 0,0 0,0 1.552038,-2.12501 3.858062,-2.96613 5.922942,-2.67158 0.320804,1.00792 0.356953,2.10263 0.125639,3.22282 -0.205267,0.99585 -0.620606,2.00752 -1.208531,2.97223 -1.247626,2.03603 -3.28261,3.87429 -5.417038,4.28481 -1.27375,-2.05325 -1.183232,-5.09714 0.339598,-7.46297 z M 64.25468,92.576029 c 2.220142,-1.740258 4.839698,-1.850517 6.800549,-0.839249 -0.04769,2.006317 -1.165626,3.948783 -3.034064,5.497274 -1.843545,1.520318 -4.368402,2.59328 -6.520796,2.284123 -0.533963,-2.357003 0.544974,-5.202326 2.754311,-6.942148 z m 6.629262,-9.999666 c 2.699154,-0.876865 5.191284,-0.03816 6.6631,1.6021 -0.749865,1.855943 -2.452774,3.251809 -4.71733,4.060864 -0.20858,0.07394 -0.421016,0.14246 -0.636412,0.205226 0,0 0,0 0,0 -2.104641,0.615446 -4.53065,0.678663 -6.264917,-0.217974 0.130965,-1.146474 0.657365,-2.327592 1.528673,-3.352289 0.904421,-1.060396 2.107422,-1.866007 3.426886,-2.297927 z m 9.78083,-7.002844 c 2.843587,0.15262 4.850443,1.839757 5.620129,3.910197 -1.360111,1.439387 -3.438201,2.127493 -5.842296,2.069734 -2.361232,-0.0625 -4.995781,-0.865487 -6.442,-2.480698 1.124491,-2.162751 3.831585,-3.644906 6.664167,-3.499233 z"
           id="path23" />
      </g>
      <path
         id="path25"
         style="fill:#333333;stroke:#333333;stroke-width:0.662068;stroke-linecap:square;stroke-dasharray:none"
         d="m 100.41335,84.00161 a 25.210173,25.210173 0 0 0 -25.210054,25.21006 25.210173,25.210173 0 0 0 25.210054,25.21004 25.210173,25.210173 0 0 0 25.21005,-25.21004 25.210173,25.210173 0 0 0 -25.21005,-25.21006 z m 0,1.672458 a 23.537553,23.537553 0 0 1 23.53759,23.537602 23.537553,23.537553 0 0 1 -23.53759,23.53758 23.537553,23.537553 0 0 1 -23.537595,-23.53758 23.537553,23.537553 0 0 1 23.537595,-23.537602 z" />
      <g
         id="g27"
         transform="matrix(-1.1034456,0,0,1.1034456,205.33247,-7.6500633)">
        <path
           style="opacity:1;fill:#333333;stroke:#333333;stroke-width:0.6;stroke-linecap:square;stroke-dasharray:none"
           d="m 76.112737,148.16866 c 2.574312,0.24759 4.750562,-0.79306 5.798172,-2.45179 -1.157669,-1.63488 -3.253108,-2.73195 -5.610165,-3.01084 -2.344946,-0.27201 -4.75108,0.30039 -6.096689,1.71595 0.998818,1.98765 3.33141,3.49313 5.908682,3.74668 z m -8.532945,-6.69768 c 2.475051,0.74428 4.80879,0.12823 6.15338,-1.30555 -0.824779,-1.81214 -2.659122,-3.26498 -4.892473,-3.99003 -2.221292,-0.71549 -4.685612,-0.65082 -6.287048,0.44946 0.566635,2.14818 2.55003,4.09561 5.026141,4.84612 z m -6.96531,-8.27802 c 2.255056,1.26103 4.651464,1.13246 6.256312,0.0119 -0.416463,-1.9173 -1.866184,-3.69849 -3.856656,-4.88532 -0.594617,-0.35268 -1.229384,-0.6468 -1.879021,-0.86633 -1.518386,-0.51043 -3.080361,-0.60555 -4.341767,-0.11873 0.01734,0.69524 0.177063,1.42451 0.476099,2.14365 0.639339,1.52932 1.849886,2.87447 3.345033,3.71485 z m -4.909263,-9.65932 c 1.904347,1.76226 4.26452,2.18951 6.090988,1.46753 0.04493,-1.95191 -0.942752,-4.0237 -2.614033,-5.65346 -1.666352,-1.61746 -3.899801,-2.66949 -5.831456,-2.40286 -0.456819,2.18103 0.454786,4.82311 2.354501,6.58879 z M 53.156312,112.9964 c 1.455652,2.14624 3.65759,3.10699 5.600218,2.82347 0.491755,-1.90115 -0.0032,-4.15273 -1.266409,-6.12062 -1.260197,-1.95318 -3.202721,-3.4802 -5.143891,-3.65484 -0.936345,2.02372 -0.641165,4.80216 0.810082,6.95199 z m -0.109034,-10.84355 c 0.08898,0.2308 0.188386,0.45533 0.297603,0.67256 0,0 0,0 0,0 1.022127,2.03328 2.769235,3.19491 4.522504,3.33883 0.436859,-0.83916 0.673147,-1.81711 0.705118,-2.8624 0.03454,-1.10255 -0.158918,-2.26468 -0.55694,-3.381787 -0.786085,-2.190247 -2.334214,-4.116378 -4.187901,-4.723968 -1.367961,1.760727 -1.708356,4.53414 -0.780384,6.956765 z m 2.337028,-10.592155 c 0.367882,2.567065 1.927118,4.398119 3.798302,4.995546 1.276578,-1.496264 1.815521,-3.738577 1.541395,-6.059494 -0.277688,-2.305359 -1.353031,-4.529669 -3.018339,-5.538348 -1.730153,1.406718 -2.683776,4.033425 -2.321358,6.602296 z m 4.66277,-9.787273 c -0.230859,2.582406 0.87703,4.713878 2.562993,5.71683 1.57566,-1.162273 2.603031,-3.206531 2.872034,-5.511887 0.0316,-0.276353 0.05197,-0.554765 0.06083,-0.833394 0,0 0,0 0,0 0.0582,-2.027889 -0.48443,-4.042701 -1.688716,-5.252756 -0.918208,0.432648 -1.77292,1.170641 -2.445379,2.136403 -0.762629,1.096753 -1.23947,2.409679 -1.361764,3.744804 z m 6.858925,-8.404181 c -0.863022,2.452917 -0.296007,4.782803 1.101088,6.162527 1.797746,-0.735355 3.283144,-2.448897 4.112069,-4.615504 0.817907,-2.152762 0.923438,-4.623301 -0.06428,-6.299619 -2.195504,0.421379 -4.280652,2.301988 -5.148875,4.752596 z m 8.729229,-6.439115 c -1.443706,2.159572 -1.471193,4.5587 -0.460684,6.240554 1.92543,-0.268375 3.781914,-1.560525 5.117683,-3.445077 1.320245,-1.87186 2.046972,-4.236488 1.517673,-6.106635 -2.23435,-0.148198 -4.726005,1.154365 -6.174672,3.311158 z"
           id="path26" />
        <path
           style="opacity:1;fill:#333333;stroke:#333333;stroke-width:0.637904;stroke-linecap:square;stroke-dasharray:none"
           d="m 75.42345,135.65969 c -1.103916,-2.56848 -0.604727,-5.14323 0.839379,-6.81283 1.96221,0.53419 3.61938,2.13381 4.644122,4.37096 1.007872,2.21442 1.315721,4.92012 0.404358,6.90105 -2.376668,-0.1356 -4.78091,-1.8996 -5.887859,-4.45918 z m -8.133941,-8.67096 c -0.226364,-2.20441 0.541904,-4.14453 1.881378,-5.4043 0,0 0,0 0,0 0.324933,-0.30589 0.676762,-0.56632 1.045702,-0.7819 0.06479,0.0432 0.128749,0.0877 0.19184,0.13365 1.541535,1.13228 2.516227,3.05683 2.815429,5.35984 0.302653,2.37471 -0.167813,5.08472 -1.577936,6.71209 -2.248565,-0.81305 -4.063887,-3.23239 -4.356413,-6.01938 z m -4.917586,-10.9092 c 0.673069,-2.73313 2.668952,-4.44343 4.834491,-4.8621 1.207435,1.61804 1.515975,3.84126 0.999729,6.20536 -0.512689,2.32072 -1.830905,4.73494 -3.70439,5.82707 -1.88714,-1.52797 -2.795259,-4.4418 -2.12983,-7.17033 z M 61.341979,104.1695 c 0.07617,-0.11776 0.155347,-0.23291 0.23739,-0.34531 0,0 0,0 0,0 1.552038,-2.12501 3.858062,-2.96613 5.922942,-2.67158 0.320804,1.00792 0.356953,2.10263 0.125639,3.22282 -0.205267,0.99585 -0.620606,2.00752 -1.208531,2.97223 -1.247626,2.03603 -3.28261,3.87429 -5.417038,4.28481 -1.27375,-2.05325 -1.183232,-5.09714 0.339598,-7.46297 z M 64.25468,92.576029 c 2.220142,-1.740258 4.839698,-1.850517 6.800549,-0.839249 -0.04769,2.006317 -1.165626,3.948783 -3.034064,5.497274 -1.843545,1.520318 -4.368402,2.59328 -6.520796,2.284123 -0.533963,-2.357003 0.544974,-5.202326 2.754311,-6.942148 z m 6.629262,-9.999666 c 2.699154,-0.876865 5.191284,-0.03816 6.6631,1.6021 -0.749865,1.855943 -2.452774,3.251809 -4.71733,4.060864 -0.20858,0.07394 -0.421016,0.14246 -0.636412,0.205226 0,0 0,0 0,0 -2.104641,0.615446 -4.53065,0.678663 -6.264917,-0.217974 0.130965,-1.146474 0.657365,-2.327592 1.528673,-3.352289 0.904421,-1.060396 2.107422,-1.866007 3.426886,-2.297927 z m 9.78083,-7.002844 c 2.843587,0.15262 4.850443,1.839757 5.620129,3.910197 -1.360111,1.439387 -3.438201,2.127493 -5.842296,2.069734 -2.361232,-0.0625 -4.995781,-0.865487 -6.442,-2.480698 1.124491,-2.162751 3.831585,-3.644906 6.664167,-3.499233 z"
           id="path27" />
      </g>
      <g
         id="text1">
        <path
           style="color:#000000;-inkscape-font-specification:'OptimusPrincepsSemiBold, Normal';fill:#333333;stroke-linecap:square;-inkscape-stroke:none"
           d="m 100.43183,104.17219 -0.42218,-0.2111 q -0.712439,0.29026 -1.398491,0.29026 h -2.770591 q -1.715128,0 -3.40387,0 -1.662354,-0.0264 -3.377483,-0.0791 -0.211092,0 -0.290252,0.18471 -0.05278,0.15832 0.15832,0.26386 0.263866,0.15831 0.527732,0.26387 0.263866,0.0791 0.501345,0.13193 0.211092,0.0527 0.369411,0.10549 0.184707,0.0527 0.316639,0.1847 0.131934,0.10549 0.211093,0.34303 0.07916,0.21109 0.07916,0.6069 v 14.61816 q 0,0.63328 -0.02638,1.05546 -0.02638,0.3958 -0.184706,0.65967 -0.15832,0.23748 -0.474958,0.36941 -0.31664,0.13194 -0.897145,0.23748 -0.263865,0.0528 -0.263865,0.26387 0.02638,0.1847 0.290252,0.1847 1.609582,0.0791 3.271937,0.0791 1.609582,0 3.192777,-0.0791 l -0.05278,-0.44857 q -1.319329,0.0528 -1.715129,-0.52773 -0.369411,-0.6069 -0.369411,-1.87345 v -6.75497 q 0.211092,0.0264 0.343025,0.0264 0.15832,0 0.369412,0 0.290253,0 0.527732,0 0.263866,-0.0264 0.554118,-0.0527 0.263866,-0.0264 0.501345,-0.0264 0.23748,-0.0264 0.474959,-0.0264 1.029076,0 1.583195,0.42218 0.580505,0.3958 0.554118,1.53043 0,0.10549 0.07916,0.15832 0.105545,0.0528 0.211093,0.0791 0.105544,0 0.184706,-0.0264 0.105544,-0.0528 0.131933,-0.15833 0.211092,-0.92353 0.343026,-1.87344 0.131932,-0.94992 0.184706,-1.92622 0,-0.1847 -0.184706,-0.23748 -0.184707,-0.0527 -0.343026,0.0791 -0.131933,0.15832 -0.448572,0.39579 -0.316639,0.2111 -0.527731,0.2111 h -4.538493 v -6.75497 q 0.422185,0 0.712437,-0.0528 0.290253,-0.0527 0.712438,-0.10549 0.474959,-0.0527 0.923531,-0.1056 0.448571,-0.0527 0.897143,-0.0527 1.029078,0 1.635969,0.44857 0.606891,0.44858 0.606891,1.58319 0,0.15833 0.131934,0.21109 0.158319,0.0528 0.343025,-0.0264 0.211092,-0.15832 0.343027,-0.44857 0.13193,-0.31664 0.18471,-0.68605 0.0792,-0.36941 0.10554,-0.76522 0.0264,-0.42217 0.0528,-0.79159 0.0264,-0.26386 0.0264,-0.50135 0.0264,-0.23748 0.0528,-0.39579 z m 11.63646,14.3543 q 0,-0.94992 -0.36941,-1.76791 -0.34303,-0.81798 -0.92353,-1.53042 -0.58051,-0.73882 -1.31933,-1.39849 -0.73883,-0.65966 -1.50403,-1.29294 -0.63328,-0.55411 -1.26656,-1.08185 -0.60689,-0.52773 -1.10824,-1.08185 -0.47496,-0.5805 -0.76521,-1.18739 -0.29025,-0.6069 -0.29025,-1.29294 0,-0.65968 0.23748,-1.1874 0.23748,-0.55413 0.63327,-0.94992 0.42219,-0.3958 0.94992,-0.6069 0.55412,-0.21109 1.16102,-0.21109 0.63327,0 1.161,0.21109 0.55411,0.18472 0.9763,0.55413 0.42219,0.36941 0.63328,0.89713 0.23749,0.52774 0.23749,1.1874 0,0.18472 0.21108,0.23748 0.21109,0.0528 0.34303,-0.0791 0.36941,-0.50134 0.42218,-1.24017 0.0528,-0.76521 0.0528,-1.47765 v -0.94992 q 0,-0.1847 -0.21109,-0.23748 -1.21379,-0.34302 -2.61228,-0.34302 -1.00269,0 -2.19008,0.26386 -1.1874,0.26387 -2.21648,0.84438 -1.02908,0.55412 -1.74151,1.42487 -0.68605,0.87076 -0.68605,2.08454 0,0.81798 0.34302,1.60958 0.36941,0.76521 0.94992,1.53043 0.5805,0.7652 1.31933,1.50403 0.76521,0.73882 1.53042,1.47765 v -0.0264 q 0.68605,0.68606 1.34571,1.34572 0.65967,0.65966 1.16102,1.31933 0.52773,0.63328 0.84436,1.29294 0.31665,0.65967 0.31665,1.31933 0,0.68605 -0.34303,1.24017 -0.31664,0.55412 -0.84437,0.94991 -0.50135,0.39581 -1.13463,0.6069 -0.63327,0.21109 -1.24016,0.21109 -0.68606,0 -1.31933,-0.21109 -0.63328,-0.21109 -1.13463,-0.6069 -0.50134,-0.39579 -0.79159,-0.94991 -0.26387,-0.5805 -0.2111,-1.29294 l 0.0264,-0.42219 q 0,-0.10549 -0.0792,-0.15832 -0.0792,-0.0527 -0.2111,-0.0527 -0.10554,0 -0.21109,0.0527 -0.0792,0.0264 -0.10554,0.13194 -0.0528,0.21109 -0.10555,0.47495 -0.0528,0.23749 -0.10554,0.52774 -0.10555,0.36941 -0.18471,0.73882 -0.0792,0.36941 -0.0792,0.7916 0,0.68605 0.31664,1.161 0.34302,0.47497 0.84437,0.76522 0.50134,0.26387 1.10824,0.36941 0.60689,0.13193 1.16101,0.13193 1.13462,0 2.37479,-0.39579 1.24016,-0.42219 2.26925,-1.16102 1.02907,-0.73882 1.68873,-1.76789 0.68606,-1.02909 0.68606,-2.29563 z"
           id="path6" />
        <path
           style="color:#000000;-inkscape-font-specification:'OptimusPrincepsSemiBold, Normal';fill:#333333;stroke-linecap:square;-inkscape-stroke:none"
           d="m 108.7168,103.45117 c -0.69002,0 -1.4363,0.0904 -2.24219,0.26953 -0.81273,0.18061 -1.57491,0.47119 -2.28125,0.86914 -4.6e-4,2.5e-4 -0.001,-2.4e-4 -0.002,0 -7.3e-4,4.1e-4 -0.001,0.002 -0.002,0.002 -0.71084,0.38337 -1.31595,0.87791 -1.81054,1.48242 l -0.002,0.002 v 0.002 c -0.0761,0.0965 -0.0509,0.24292 -0.11523,0.3457 l -1.61914,-1.96875 c 0.0108,-0.0854 0.0208,-0.1796 0.0312,-0.24219 l 0.0977,-0.58594 -0.36328,0.25977 -0.38867,-0.19531 -0.103514,0.043 c -0.449432,0.1831 -0.881981,0.27148 -1.304688,0.27148 h -2.771484 -3.398438 -0.0039 c -1.105741,-0.0176 -2.230174,-0.045 -3.371094,-0.0801 h -0.0039 -0.0039 c -0.212412,0 -0.431695,0.13814 -0.515625,0.33399 l -0.0039,0.01 -0.0039,0.01 c -0.03573,0.10717 -0.02399,0.24777 0.03711,0.34961 0.0611,0.10183 0.148127,0.16293 0.24414,0.21093 0.181139,0.10767 0.363107,0.19992 0.546875,0.27344 l 0.0098,0.004 0.01172,0.002 c 0.18092,0.0542 0.352713,0.10004 0.517578,0.13672 h -0.0059 c 0.136027,0.034 0.25383,0.067 0.351563,0.0996 l 0.0059,0.002 0.0039,0.002 c 0.08592,0.0245 0.151962,0.0621 0.210938,0.12109 l 0.0098,0.01 0.0098,0.008 c 0.03641,0.0291 0.08954,0.10061 0.132813,0.23047 v 0.004 l 0.002,0.004 c 0.03504,0.0934 0.06445,0.27204 0.06445,0.51953 v 14.6177 c 0,0.41877 -0.01023,0.76524 -0.02734,1.03906 -0.01549,0.23238 -0.06718,0.40886 -0.146484,0.54297 -0.07526,0.11106 -0.187237,0.20286 -0.361328,0.27539 -0.183348,0.0764 -0.47065,0.15412 -0.847657,0.22266 h -0.002 -0.002 c -0.118846,0.0238 -0.231952,0.0698 -0.322265,0.16015 -0.09031,0.0903 -0.138672,0.22414 -0.138672,0.34571 v 0.0176 l 0.002,0.0176 c 0.0169,0.11834 0.09197,0.24355 0.197265,0.31055 0.105295,0.067 0.21931,0.084 0.335938,0.084 1.07348,0.0526 2.165269,0.0801 3.273437,0.0801 1.07708,0 2.145471,-0.0271 3.205079,-0.0801 l 0.261718,-0.0137 -0.109375,-0.93554 -0.228515,0.01 c -0.839277,0.0336 -1.304332,-0.14075 -1.496094,-0.41797 -0.205137,-0.34041 -0.332031,-0.92152 -0.332031,-1.73828 v -6.49023 c 0.02973,0.001 0.07047,0.008 0.09766,0.008 h 0.369141 0.539062 0.01367 c 0.175072,-0.0175 0.357975,-0.0353 0.550781,-0.0527 h 0.002 c 0.168644,-0.0169 0.327351,-0.0254 0.476563,-0.0254 h 0.01367 l 0.01367,-0.002 c 0.149379,-0.0166 0.300006,-0.0254 0.449218,-0.0254 0.652442,0 1.122521,0.13604 1.433594,0.37305 l 0.0059,0.004 0.0039,0.002 c 0.295258,0.20131 0.463867,0.60839 0.447265,1.32226 v 0.004 0.002 c 0,0.1318 0.07386,0.28614 0.189453,0.36328 l 0.01172,0.008 0.01367,0.008 c 0.08508,0.0426 0.172562,0.0754 0.261719,0.0977 l 0.0293,0.008 h 0.03125 c 0.09085,0 0.177848,-0.0111 0.261718,-0.0391 l 0.01563,-0.006 0.01563,-0.008 c 0.121626,-0.0608 0.22776,-0.18255 0.261719,-0.31836 v -0.004 -0.002 c 0.142328,-0.62268 0.258737,-1.25431 0.347656,-1.89453 0.08892,-0.64022 0.150001,-1.28966 0.185547,-1.94726 l 0.002,-0.006 v -0.006 c 0,-0.10253 -0.02896,-0.21441 -0.09766,-0.30274 -0.0687,-0.0883 -0.167646,-0.14387 -0.265625,-0.17187 -0.192935,-0.055 -0.414316,-0.001 -0.568359,0.12695 l -0.01758,0.0137 -0.01367,0.0176 c -0.06375,0.0765 -0.204136,0.20226 -0.402344,0.35157 -0.186001,0.12253 -0.326814,0.16601 -0.384766,0.16601 h -4.292968 v -6.2793 c 0.179031,-0.008 0.365324,-0.0128 0.509765,-0.0391 0.186064,-0.0338 0.418975,-0.0689 0.695313,-0.10351 0.317169,-0.0352 0.626141,-0.0701 0.925781,-0.10547 0.289618,-0.034 0.579718,-0.0527 0.869141,-0.0527 0.650341,0 1.139037,0.14277 1.490234,0.40235 0.324944,0.24018 0.50586,0.67218 0.505859,1.38476 0,0.17382 0.120455,0.37281 0.28711,0.43946 l 0.0059,0.002 0.0078,0.002 c 0.167743,0.0559 0.352885,0.0374 0.517578,-0.0332 l 0.02734,-0.0117 0.02344,-0.0176 c 0.178739,-0.13405 0.316545,-0.31984 0.417965,-0.54297 l 0.002,-0.004 0.002,-0.004 c 0.0965,-0.23167 0.16332,-0.48117 0.20117,-0.74609 0.0534,-0.25312 0.0895,-0.51412 0.10742,-0.78321 0.0174,-0.27805 0.0354,-0.53982 0.0527,-0.7832 v -0.008 c 0.0148,-0.14964 0.0209,-0.29061 0.0234,-0.42969 l 1.59571,1.90625 c -0.30212,0.53279 -0.58008,1.08174 -0.58008,1.75195 0,0.57968 0.12232,1.15096 0.36328,1.70703 l 0.002,0.006 0.002,0.004 c 0.25424,0.52664 0.58088,1.05069 0.97656,1.57227 0.39432,0.51978 0.842,1.0295 1.3418,1.52929 v 0.002 l 0.002,0.002 c 0.51014,0.49254 1.02111,0.98401 1.53125,1.47656 l 0.41601,0.40235 v -0.0117 c 0.31087,0.31087 0.62324,0.62323 0.92579,0.92578 0.43282,0.43282 0.81198,0.86506 1.13867,1.29492 l 0.004,0.004 0.004,0.004 c 0.34043,0.40852 0.61119,0.82278 0.8125,1.24219 0.19727,0.41097 0.29102,0.81244 0.29102,1.21289 0,0.4164 -0.10185,0.78051 -0.30664,1.11133 l -0.002,0.004 -0.002,0.004 c -0.19442,0.34023 -0.45069,0.63002 -0.77734,0.875 l -0.004,0.002 -0.002,0.002 c -0.31141,0.24585 -0.66362,0.4341 -1.06055,0.5664 -0.39984,0.13328 -0.78601,0.19727 -1.16211,0.19727 -0.43217,0 -0.84331,-0.065 -1.24023,-0.19727 -0.39693,-0.1323 -0.74914,-0.32055 -1.06055,-0.5664 -0.30631,-0.24182 -0.54343,-0.52924 -0.7207,-0.86524 -0.15602,-0.34559 -0.22189,-0.73014 -0.18946,-1.16797 l 0.0273,-0.43164 v -0.008 c 0,-0.13183 -0.0738,-0.28616 -0.18946,-0.36328 -0.10518,-0.07 -0.22699,-0.0937 -0.34765,-0.0937 -0.10248,0 -0.2017,0.0295 -0.29493,0.0723 -0.13301,0.0492 -0.23008,0.17991 -0.25976,0.29882 -0.0364,0.14542 -0.0716,0.30732 -0.10742,0.48633 -0.0357,0.16076 -0.0722,0.33722 -0.10742,0.53125 -0.0691,0.24368 -0.12937,0.48849 -0.18165,0.73242 -0.0568,0.26504 -0.0859,0.54497 -0.0859,0.8418 0,0.49518 0.11603,0.93675 0.35742,1.29883 l 0.004,0.002 0.002,0.004 c 0.24804,0.34345 0.55641,0.62353 0.91992,0.83398 l 0.006,0.004 0.004,0.002 c 0.3572,0.18801 0.75008,0.31812 1.17578,0.39258 0.001,2.6e-4 0.002,0.002 0.004,0.002 0.41611,0.0898 0.81737,0.13477 1.20313,0.13477 0.78499,0 1.60176,-0.13775 2.44922,-0.4082 h 0.004 0.002 c 0.84854,-0.28888 1.62599,-0.68842 2.33203,-1.19532 0.7082,-0.50845 1.29374,-1.11963 1.75,-1.83008 0.45448,-0.68172 0.65828,-1.45909 0.68554,-2.2871 l 0.043,-0.043 v -0.10157 c 0,-0.663 -0.12938,-1.28698 -0.38867,-1.86328 l -0.002,-0.002 c -0.2373,-0.5652 -0.55585,-1.09533 -0.95508,-1.58594 l -0.002,-0.004 c -0.39573,-0.50325 -0.84603,-0.9779 -1.34766,-1.42579 -0.49348,-0.4406 -0.99483,-0.8719 -1.50586,-1.29492 l -0.004,-0.004 c -0.42048,-0.36785 -0.84116,-0.72758 -1.26172,-1.07813 l -0.006,-0.004 c -0.39272,-0.34185 -0.75041,-0.69161 -1.07422,-1.04883 -0.3056,-0.37351 -0.55023,-0.75169 -0.73438,-1.13672 -0.17795,-0.37208 -0.26562,-0.7648 -0.26562,-1.1875 0,-0.4103 0.0723,-0.76907 0.21484,-1.08594 l 0.002,-0.002 v -0.002 c 0.14658,-0.34203 0.34077,-0.62905 0.58007,-0.86914 0.25857,-0.24168 0.54594,-0.42582 0.86719,-0.55468 0.34097,-0.12965 0.69682,-0.19532 1.07227,-0.19532 0.39487,0 0.74801,0.0652 1.06836,0.19336 l 0.008,0.002 0.006,0.002 c 0.34054,0.11352 0.63594,0.28131 0.89258,0.50586 0.25308,0.22145 0.43931,0.48697 0.5664,0.80469 l 0.002,0.004 0.004,0.006 c 0.1426,0.31688 0.21485,0.67566 0.21485,1.08594 0,0.10838 0.038,0.22757 0.11523,0.31445 0.0772,0.0869 0.17816,0.13634 0.28125,0.16211 0.19915,0.0498 0.43222,0.001 0.57812,-0.14453 l 0.0117,-0.0137 0.0117,-0.0137 c 0.27716,-0.37615 0.43095,-0.83988 0.46875,-1.36914 0.0356,-0.51537 0.0547,-1.01311 0.0547,-1.49414 v -0.95118 c 0,-0.10838 -0.038,-0.22758 -0.11523,-0.31445 -0.0766,-0.0862 -0.17903,-0.13227 -0.28125,-0.1582 -6.8e-4,-1.9e-4 -0.001,-0.002 -0.002,-0.002 -0.83085,-0.234 -1.72227,-0.35156 -2.67187,-0.35156 z m 0,0.49219 c 0.91223,0 1.7595,0.11202 2.54492,0.33398 h 0.004 l 0.004,0.002 c 0.0274,0.007 0.025,0.008 0.0254,0.008 v 0.94141 c 0,0.46888 -0.0179,0.95407 -0.0527,1.45898 -0.0318,0.44552 -0.1606,0.79707 -0.36719,1.08594 -0.0191,0.0187 -0.0244,0.031 -0.0937,0.0137 -0.0291,-0.007 -0.0261,-0.0105 -0.0254,-0.01 -0.001,-0.46297 -0.0848,-0.89098 -0.25586,-1.27343 -0.15439,-0.38417 -0.38854,-0.7162 -0.69727,-0.98633 -0.30518,-0.26704 -0.66009,-0.46683 -1.05664,-0.59961 -0.38085,-0.15091 -0.79621,-0.22656 -1.24218,-0.22656 -0.4331,0 -0.85074,0.0752 -1.24805,0.22656 l -0.002,0.002 h -0.002 c -0.38001,0.15201 -0.72451,0.37235 -1.02734,0.65625 l -0.004,0.002 -0.002,0.004 c -0.2864,0.2864 -0.51426,0.6311 -0.68359,1.02539 -3.8e-4,8.7e-4 -0.002,10e-4 -0.002,0.002 -0.17241,0.38537 -0.25781,0.81611 -0.25781,1.2832 0,0.47136 0.10886,0.91846 0.30078,1.33984 l -1.96679,-2.38672 c 0.0763,-0.13895 0.0501,-0.33131 0.15039,-0.45898 0.4544,-0.55539 1.00838,-1.01008 1.66796,-1.36524 h 0.002 l 0.002,-0.002 c 0.6647,-0.37496 1.37942,-0.64746 2.14844,-0.81836 0.77729,-0.17273 1.48982,-0.25781 2.13672,-0.25781 z m -8.746097,0.27344 0.193357,0.0976 c -0.0101,0.0738 -0.0194,0.13751 -0.0293,0.22657 l -0.002,0.0137 v 0.0137 c 0,0.14922 -0.009,0.30792 -0.0254,0.47656 v 0.004 0.004 c -0.0177,0.24711 -0.0351,0.51089 -0.0527,0.79297 -0.0169,0.25193 -0.0515,0.49499 -0.101565,0.72852 v 0.008 l -0.002,0.01 c -0.03221,0.22545 -0.08783,0.43011 -0.166016,0.61914 -0.06909,0.152 -0.152597,0.25179 -0.246094,0.32812 -0.04505,0.0146 -0.08228,0.018 -0.111328,0.0117 -0.0062,-0.78388 -0.219895,-1.40301 -0.697265,-1.75586 -0.457991,-0.33851 -1.059489,-0.49609 -1.78125,-0.49609 -0.308673,0 -0.617306,0.0184 -0.925782,0.0547 -0.298455,0.0352 -0.605765,0.0704 -0.921875,0.10546 h -0.002 -0.002 c -0.284567,0.0356 -0.526645,0.0711 -0.726562,0.10743 -0.172858,0.0314 -0.396758,0.0488 -0.667969,0.0488 H 93.45686 v 7.2461 h 4.785156 c 0.222654,0 0.431997,-0.0972 0.664063,-0.25195 l 0.0059,-0.004 0.0039,-0.004 c 0.218958,-0.16421 0.379064,-0.30214 0.490234,-0.43554 l -0.03125,0.0312 c 0.05705,-0.0475 0.0658,-0.0465 0.119141,-0.0312 0.0084,0.002 0.0013,-0.001 0.0039,0 -0.03492,0.64003 -0.09323,1.27206 -0.179688,1.89453 -0.08625,0.62098 -0.198439,1.2323 -0.335937,1.83593 -0.01414,0.003 -0.03158,0.004 -0.05273,0.006 -0.03002,-0.009 -0.06044,-0.0213 -0.0918,-0.0352 0.0051,-0.76203 -0.178723,-1.36456 -0.640625,-1.68164 -0.427234,-0.32284 -1.006229,-0.46875 -1.722657,-0.46875 -0.167426,0 -0.334692,0.009 -0.501953,0.0273 -0.160041,8.6e-4 -0.325686,0.008 -0.5,0.0254 -0.193457,0.0175 -0.376602,0.0351 -0.552734,0.0527 h -0.503906 -0.369141 c -0.07156,0 -0.178028,-0.009 -0.3125,-0.0254 l -0.277344,-0.0352 v 7.0332 c 0,0.86826 0.120497,1.53249 0.40625,2.00196 l 0.002,0.006 0.0039,0.006 c 0.289385,0.42445 0.866593,0.57911 1.591796,0.60157 -0.931713,0.0411 -1.866928,0.0684 -2.8125,0.0684 -1.058014,0 -2.097549,-0.026 -3.123046,-0.0742 0.321217,-0.0643 0.610962,-0.13315 0.816406,-0.21875 0.245994,-0.1025 0.448143,-0.25523 0.583984,-0.45899 l 0.0039,-0.006 0.002,-0.004 c 0.130345,-0.21724 0.201187,-0.47673 0.220703,-0.76953 v -0.002 c 0.01806,-0.28908 0.02539,-0.64471 0.02539,-1.07031 v -14.61914 c 0,-0.27704 -0.02314,-0.4969 -0.0918,-0.68359 -3.09e-4,-9.3e-4 -0.0016,-0.001 -0.002,-0.002 -0.0611,-0.1823 -0.148665,-0.33662 -0.283203,-0.44726 -0.114604,-0.11025 -0.253876,-0.1923 -0.408203,-0.23633 l 0.01172,0.002 c -0.113359,-0.0378 -0.243242,-0.075 -0.388672,-0.11133 h -0.002 -0.0039 c -0.148041,-0.0329 -0.306413,-0.0754 -0.472657,-0.125 -0.154583,-0.0624 -0.309707,-0.14112 -0.466797,-0.23437 1.13779,0.0349 2.260195,0.0626 3.363282,0.0801 h 0.002 3.404297 2.771484 c 0.448806,0 0.903173,-0.11122 1.359375,-0.28125 z m 2.595707,2.76367 2.32422,2.7793 c 0.15575,0.25816 0.29234,0.52051 0.49609,0.76953 l 0.004,0.004 0.004,0.004 c 0.24514,0.27095 0.52918,0.53207 0.81055,0.79297 l 5.48242,6.54883 c 0.035,0.21954 0.13477,0.41465 0.13477,0.64843 0,0.79999 -0.21298,1.51087 -0.64454,2.15821 l -0.002,0.002 v 0.002 c -0.42286,0.65966 -0.96266,1.22565 -1.625,1.70118 -0.66608,0.4782 -1.40008,0.8529 -2.20508,1.12695 -0.80463,0.2564 -1.57024,0.38281 -2.29687,0.38281 -0.34991,0 -0.718,-0.0403 -1.10742,-0.125 l -0.006,-0.002 h -0.006 c -0.38115,-0.0663 -0.72361,-0.18298 -1.03321,-0.34571 h -0.002 c -0.29911,-0.17469 -0.54736,-0.40311 -0.7539,-0.6875 -0.17955,-0.27067 -0.2754,-0.60342 -0.2754,-1.02148 0,-0.26609 0.0255,-0.51273 0.0742,-0.74023 0.0516,-0.24081 0.11081,-0.48159 0.17969,-0.72266 l 0.004,-0.0117 0.002,-0.0117 c 0.0347,-0.1909 0.0692,-0.36303 0.10352,-0.51758 v -0.002 l 0.002,-0.004 c 0.0328,-0.16399 0.0634,-0.30855 0.0957,-0.43945 0.0313,-0.0131 0.0596,-0.0215 0.084,-0.0215 0.0297,0 0.0294,0.003 0.041,0.006 l -0.0215,0.36523 c -0.0374,0.50918 0.0385,0.98363 0.23242,1.41016 l 0.002,0.006 0.004,0.006 c 0.20933,0.39962 0.49752,0.74516 0.85742,1.02929 0.35706,0.28189 0.76154,0.49734 1.20899,0.64649 0.44743,0.14914 0.9139,0.22461 1.39648,0.22461 0.43309,0 0.87383,-0.0764 1.31836,-0.22461 0.44744,-0.14915 0.85193,-0.3646 1.20898,-0.64649 0.37223,-0.28007 0.67407,-0.62028 0.90039,-1.01367 v -0.002 c 0.25192,-0.40762 0.38086,-0.86952 0.38086,-1.36719 0,-0.4791 -0.11686,-0.95719 -0.34179,-1.42578 -0.22086,-0.46014 -0.51375,-0.90789 -0.87696,-1.34375 -0.34031,-0.44691 -0.7318,-0.89196 -1.17578,-1.33594 -0.43977,-0.43977 -0.88834,-0.88833 -1.3457,-1.3457 l -0.41992,-0.41992 v 0.0391 c -0.37078,-0.35799 -0.74251,-0.71623 -1.11328,-1.07422 -0.48366,-0.484 -0.91631,-0.97553 -1.29493,-1.47461 -0.37645,-0.49624 -0.68211,-0.98926 -0.91992,-1.48047 v -0.002 c -0.21586,-0.49879 -0.32226,-0.99943 -0.32226,-1.50977 0,-0.5269 0.23606,-0.91997 0.4375,-1.33398 z m 4.08007,4.76562 c 0.38101,0.31901 0.76346,0.64313 1.14454,0.97657 l 0.002,0.002 0.002,0.002 c 0.50778,0.42024 1.00779,0.84939 1.49805,1.28711 0.4824,0.43072 0.91139,0.88653 1.28906,1.36719 h 0.002 v 0.002 c 0.37288,0.45763 0.66927,0.94751 0.88868,1.47071 v 0.004 l 0.002,0.002 c 0.13938,0.30862 0.15342,0.6645 0.20898,1.0039 z M 99.5,112.16602 c 7.61e-4,3.3e-4 0.0094,0.005 0.0059,0 -0.0071,-0.009 -0.0059,-0.0187 -0.0059,0.002 z m -0.519531,3.73828 c -3.1e-4,10e-4 -0.0016,0.003 -0.002,0.004 0.0028,-0.003 0.0095,-0.008 -0.002,-0.002 z m -0.128907,0.002 c 0.0011,0.001 0.0059,0.009 0.0059,0.008 v 0.006 c 1.48e-4,-0.006 -0.006,-0.007 -0.0059,-0.0137 z"
           id="path7" />
      </g>
      <g
         id="text2">
        <path
           style="color:#000000;-inkscape-font-specification:'OptimusPrincepsSemiBold, Normal';fill:#333333;stroke-linecap:square;-inkscape-stroke:none"
           d="m 96.843253,94.437813 -0.0089,-0.161705 q -0.485117,-0.03594 -0.96125,-0.01796 -0.476134,0.0089 -0.96125,0.0089 -0.04492,0 -0.08085,0.02695 -0.03594,0.01797 -0.02695,0.0539 0.01796,0.09882 0.152723,0.134754 0.134754,0.02696 0.260525,0.03594 0.0539,0.0089 0.08085,0.0089 0.02695,-0.0089 0.0539,0 0.116788,0.04492 0.152721,0.170689 0.03594,0.12577 0.03594,0.269509 0,0.215607 0,0.458167 0,0.242558 0,0.494099 0.0089,0.24256 0.0089,0.485118 0,0.242558 0,0.449182 0.0089,0.476133 0.0089,0.943283 0,0.46715 0,0.952266 0,0.404264 -0.143738,0.73666 -0.134755,0.332395 -0.386296,0.565965 -0.24256,0.23358 -0.583938,0.36833 -0.332394,0.12577 -0.718692,0.12577 -0.386296,0 -0.718692,-0.12577 -0.323411,-0.12577 -0.565969,-0.35934 -0.233575,-0.233577 -0.36833,-0.556988 -0.134754,-0.323411 -0.134754,-0.727676 0,-0.485117 -0.0089,-0.96125 0,-0.476134 0.0089,-0.96125 0.0089,-0.485117 0.0089,-0.96125 0,-0.476134 0,-0.96125 0,-0.26951 0.134755,-0.359346 0.143738,-0.08984 0.386296,-0.116788 0.08983,-0.0089 0.08983,-0.08085 0,-0.07187 -0.08983,-0.08085 -0.449182,-0.04492 -0.88938,-0.0089 -0.440199,0.02696 -0.880398,0.0089 l -0.341378,-0.0089 q -0.04492,0 -0.08085,0.02696 -0.03594,0.01796 -0.02696,0.0539 0.01796,0.09882 0.152723,0.134754 0.134755,0.03594 0.260525,0.04492 0.0539,0.0089 0.08085,0.0089 0.02695,-0.0089 0.0539,0 0.116787,0.04492 0.152721,0.17069 0.03594,0.12577 0.03594,0.269509 v 3.566508 q 0,0.03594 0.0089,0.125771 0.01796,0.08085 0.02695,0.179673 0.01796,0.09882 0.03594,0.188656 0.01796,0.08984 0.03594,0.125772 0.152723,0.404263 0.413248,0.754625 0.260526,0.34138 0.601905,0.59292 0.341378,0.24256 0.745643,0.3863 0.413247,0.13476 0.86243,0.13476 0.592921,0 1.069053,-0.21561 0.476134,-0.21561 0.808529,-0.58394 0.341379,-0.368331 0.521051,-0.862432 0.179673,-0.494101 0.179673,-1.06007 v -3.395819 q 0,-0.260525 0.152723,-0.359346 0.161705,-0.09882 0.395279,-0.134755 z m 6.540087,5.156613 q 0,-0.161705 -0.0269,-0.314427 l -0.19764,-0.01796 q -0.16171,0.332395 -0.32341,0.583937 -0.15272,0.251534 -0.35935,0.422224 -0.20662,0.16171 -0.48511,0.24256 -0.26951,0.0808 -0.65581,0.0808 -0.67378,0 -1.23974,-0.27849 -0.556991,-0.2785 -0.970239,-0.74564 -0.413247,-0.46715 -0.646822,-1.069054 -0.224591,-0.601905 -0.224591,-1.248727 0,-0.619872 0.188656,-1.122956 0.197641,-0.512068 0.548003,-0.86243 0.359346,-0.359346 0.853446,-0.556986 0.503087,-0.19764 1.122957,-0.19764 0.37731,0 0.70971,0.09882 0.33239,0.09882 0.59292,0.296461 0.26052,0.197639 0.4402,0.4941 0.17967,0.287477 0.24256,0.673773 0.018,0.07187 0.0988,0.07187 0.0898,0 0.10781,-0.07187 0.0719,-0.404263 0.11678,-0.808527 0.0449,-0.413248 0.0539,-0.826497 0,-0.08085 -0.0898,-0.08085 -0.2246,-0.01796 -0.45817,-0.04492 -0.23358,-0.03594 -0.46715,-0.07187 -0.31443,-0.04492 -0.63784,-0.08085 -0.32341,-0.04492 -0.65581,-0.04492 -0.28747,0 -0.64682,0.03594 -0.35036,0.03594 -0.700723,0.125771 -0.350362,0.08983 -0.664789,0.233575 -0.314428,0.143738 -0.521052,0.359346 -0.556986,0.565969 -0.862431,1.302628 -0.29646,0.727675 -0.29646,1.518236 0,0.73666 0.251542,1.347548 0.260526,0.601904 0.709709,1.042099 0.449182,0.43122 1.069054,0.67378 0.628855,0.23357 1.36551,0.23357 0.58394,0 1.14991,-0.0629 0.57495,-0.0539 1.14092,-0.14374 0.0539,0 0.0808,-0.0449 0.13476,-0.24256 0.20663,-0.55699 0.0808,-0.314427 0.0808,-0.583937 z m 7.1959,-2.102173 q 0,-0.152722 0,-0.332395 0,-0.188656 -0.018,-0.359346 -0.0269,-0.332394 -0.19764,-0.655805 -0.17068,-0.323413 -0.43121,-0.610889 -0.25154,-0.287476 -0.58394,-0.521051 -0.33239,-0.242559 -0.69173,-0.413248 -0.35037,-0.179673 -0.70972,-0.278494 -0.35035,-0.09882 -0.66478,-0.09882 -0.2246,0 -0.47614,0.0089 -0.25154,0 -0.48512,0.01796 -0.25154,0.01796 -0.48511,0.03593 -0.23358,0.0089 -0.47614,0.0089 -0.19764,0 -0.38629,-0.0089 -0.17968,-0.0089 -0.37732,-0.02695 -0.15272,-0.0089 -0.31442,-0.01796 -0.16171,-0.0089 -0.32341,-0.0089 -0.0539,0 -0.0898,0.03594 -0.0269,0.03593 0,0.08085 0.0269,0.07187 0.10781,0.09882 0.0809,0.01796 0.18866,0.03594 0.0629,0.0089 0.13475,0.02696 0.0719,0.01796 0.13476,0.06288 0.0629,0.04492 0.0988,0.125771 0.0449,0.08085 0.0449,0.215607 v 4.967958 q 0,0.197639 -0.018,0.341379 -0.018,0.13476 -0.0808,0.23358 -0.0539,0.0898 -0.16171,0.15272 -0.1078,0.0629 -0.28747,0.0988 -0.0898,0.018 -0.0808,0.0898 0.018,0.0719 0.1078,0.0719 0.35935,-0.018 0.7187,0.009 0.36833,0.018 0.72767,0.0449 0.30545,0.0269 0.61987,0.0449 0.31444,0.018 0.62886,0.018 0.86243,0 1.56316,-0.20663 0.70971,-0.2156 1.21279,-0.64682 0.50309,-0.431218 0.77259,-1.087024 0.2785,-0.655806 0.2785,-1.554171 z m -0.9343,0.332395 q 0,0.682757 -0.21561,1.194826 -0.21561,0.512067 -0.60191,0.853445 -0.37731,0.332391 -0.91633,0.503081 -0.53902,0.17069 -1.18584,0.17069 -0.24255,0 -0.548,-0.0449 -0.29646,-0.0539 -0.50309,-0.19764 -0.0449,-0.0359 -0.0808,-0.13475 -0.0269,-0.0988 -0.0449,-0.206627 -0.018,-0.116788 -0.0269,-0.233575 0,-0.116788 0,-0.188656 v -4.752346 q 0.2156,-0.07187 0.43121,-0.09883 0.2246,-0.02695 0.45817,-0.02695 0.70971,0 1.30264,0.224592 0.60189,0.224591 1.02413,0.637839 0.43121,0.404264 0.66479,0.988201 0.24256,0.583937 0.24256,1.311611 z"
           id="path1" />
        <path
           style="color:#000000;-inkscape-font-specification:'OptimusPrincepsSemiBold, Normal';fill:#333333;stroke-linecap:square;-inkscape-stroke:none"
           d="m 101.02148,94.03125 c -0.19513,0 -0.41448,0.01098 -0.65625,0.03516 -0.23779,0.02439 -0.475412,0.06802 -0.712886,0.128906 -0.238142,0.06106 -0.465376,0.140306 -0.679688,0.238282 -0.199723,0.0913 -0.360474,0.209979 -0.5,0.345703 l -1.548828,-0.41211 -0.0098,-0.169921 -0.07422,-0.0039 c -0.325791,-0.02414 -0.64879,-0.03154 -0.96875,-0.01953 h -0.002 c -0.316259,0.0059 -0.634791,0.0098 -0.957032,0.0098 -0.04459,0 -0.08852,0.01532 -0.125,0.04102 -0.02108,0.01185 -0.04162,0.02854 -0.05469,0.05469 -0.01354,0.02708 -0.01502,0.0585 -0.0098,0.08398 0.01824,0.100351 0.105493,0.172535 0.212891,0.201172 h 0.002 0.002 c 0.09037,0.01808 0.178339,0.03069 0.263672,0.03711 0.03815,0.0063 0.06853,0.0098 0.0957,0.0098 h 0.01367 l 0.01172,-0.0039 c 0.05413,0.02152 0.08183,0.05107 0.09961,0.113281 0.02165,0.07575 0.0332,0.157242 0.0332,0.246094 v 0.458984 0.496094 0.002 c 0.0059,0.160685 0.0098,0.319787 0.0098,0.480469 v 0.451172 c 0.0059,0.31691 0.0078,0.630504 0.0078,0.941406 V 98.75 c 0,0.259592 -0.0458,0.492871 -0.136718,0.703125 v 0.002 c -0.08559,0.211121 -0.208538,0.387841 -0.367188,0.535156 v 0.002 c -0.15337,0.147689 -0.338118,0.265299 -0.556641,0.351559 v -0.002 c -0.211561,0.08 -0.439049,0.12109 -0.6875,0.12109 -0.248449,0 -0.47789,-0.041 -0.689453,-0.12109 v 0.002 c -0.205885,-0.0801 -0.383383,-0.19377 -0.537109,-0.3418 -0.147752,-0.147746 -0.263624,-0.322925 -0.349609,-0.52929 -0.08508,-0.204181 -0.128907,-0.4351 -0.128907,-0.695312 0,-0.323923 -0.0019,-0.644938 -0.0078,-0.962891 1.2e-5,-0.316269 0.0019,-0.636732 0.0078,-0.958984 0.0059,-0.323913 0.0098,-0.644948 0.0098,-0.962891 v -0.960937 c 0,-0.165728 0.03995,-0.250594 0.09766,-0.289063 0.08102,-0.05027 0.195079,-0.08656 0.347656,-0.103516 0.04095,-0.0041 0.08192,-0.01689 0.115235,-0.04687 0.03332,-0.02999 0.04883,-0.07579 0.04883,-0.117187 0,-0.04139 -0.01553,-0.08917 -0.04883,-0.119141 -0.0333,-0.02997 -0.0743,-0.04083 -0.115235,-0.04492 -0.303693,-0.03037 -0.604387,-0.03403 -0.902343,-0.0098 -0.290629,0.0178 -0.582427,0.02169 -0.873047,0.0098 l -0.34375,-0.0098 c -0.04459,0 -0.08852,0.01532 -0.125,0.04102 -0.02112,0.01184 -0.04354,0.0285 -0.05664,0.05469 -0.01385,0.02769 -0.01349,0.06016 -0.0078,0.08594 0.01936,0.09888 0.1065,0.170851 0.21289,0.199219 0.09442,0.02518 0.185752,0.04048 0.275391,0.04687 0.03377,0.0054 0.06291,0.0098 0.08789,0.0098 h 0.01172 l 0.01367,-0.0039 c 0.05413,0.02152 0.08183,0.05106 0.09961,0.113281 0.02165,0.07575 0.0332,0.157242 0.0332,0.246094 v 3.566406 c 0,0.03087 0.0037,0.07379 0.0098,0.134765 v 0.0039 0.0059 c 0.01105,0.04974 0.01967,0.106996 0.02539,0.169922 l 0.002,0.002 v 0.0039 c 0.01205,0.06632 0.02306,0.130984 0.03516,0.191407 0.01245,0.06229 0.02587,0.105921 0.04492,0.144531 2.35e-4,4.76e-4 -2.37e-4,0.0015 0,0.002 0.104243,0.273658 0.243476,0.530288 0.419922,0.767578 0.178364,0.233719 0.385185,0.436989 0.619141,0.609369 h 0.002 v 0.002 c 0.233936,0.16622 0.489122,0.29817 0.765625,0.39648 h 0.002 c 0.283994,0.0926 0.580849,0.13867 0.888672,0.13867 0.405423,0 0.774205,-0.0735 1.103515,-0.22265 0.327068,-0.14811 0.606469,-0.34924 0.835938,-0.60352 0.235291,-0.25387 0.413794,-0.551501 0.537109,-0.890621 0.123289,-0.339044 0.185547,-0.701724 0.185547,-1.087891 v -3.396484 c 0,-0.157333 0.04158,-0.241402 0.115235,-0.289063 0.08983,-0.05451 0.204259,-0.0919 0.33789,-0.115234 l 0.103516,0.0625 -0.0078,-0.15625 -0.0039,-0.05859 1.541016,0.410156 c -0.01025,0.01009 -0.0272,0.01505 -0.03711,0.02539 -0.37869,0.384798 -0.673241,0.8274 -0.880859,1.328125 v 0.002 c -0.201635,0.494922 -0.302734,1.011329 -0.302734,1.548828 0,0.50063 0.08561,0.960698 0.257812,1.378906 v 0.002 h 0.002 c 0.177694,0.410533 0.419267,0.767213 0.726563,1.068358 l 0.002,0.002 c 0.307672,0.29536 0.673173,0.52606 1.095703,0.6914 h 0.002 c 0.429233,0.15943 0.894578,0.23828 1.394528,0.23828 0.3923,0 0.77775,-0.0202 1.1582,-0.0625 0.38506,-0.0361 0.76545,-0.0844 1.14453,-0.14453 h -0.0117 c 0.0592,0 0.12174,-0.0349 0.15234,-0.0859 l 0.002,-0.002 c 0.0938,-0.16891 0.16351,-0.3611 0.21289,-0.57617 0.0384,-0.14927 0.0467,-0.283751 0.0586,-0.419923 l 0.0254,0.02734 V 99.59375 c 0,-0.112443 -0.009,-0.221342 -0.0274,-0.328125 l -0.0117,-0.0625 -0.31835,-0.0293 -0.0254,0.05078 c -0.10663,0.219197 -0.21276,0.411907 -0.31835,0.576172 h -0.002 v 0.002 c -0.0975,0.160557 -0.2118,0.293003 -0.34179,0.400393 -0.12843,0.10021 -0.27905,0.17545 -0.45508,0.22656 -0.16914,0.0507 -0.37916,0.0781 -0.63086,0.0781 -0.43766,0 -0.83762,-0.0897 -1.20313,-0.26953 -0.361986,-0.181 -0.676701,-0.422925 -0.945306,-0.726558 -0.268865,-0.303935 -0.478523,-0.650409 -0.630859,-1.042969 -0.146296,-0.392072 -0.21875,-0.79722 -0.21875,-1.21875 0,-0.404759 0.06179,-0.76894 0.183593,-1.09375 h -0.002 c 0.128088,-0.331864 0.304572,-0.607307 0.529297,-0.832031 0.117174,-0.117175 0.2785,-0.182932 0.417969,-0.273438 l 3.349616,0.890625 c 0.0128,0.05245 0.0436,0.08857 0.0527,0.144531 l 0.002,0.0039 v 0.0039 c 0.01,0.03827 0.0324,0.07682 0.0664,0.101562 0.034,0.02474 0.0739,0.0332 0.11328,0.0332 0.0411,0 0.0833,-0.0074 0.11914,-0.03125 0.0358,-0.02387 0.0603,-0.06366 0.0703,-0.103516 v -0.0039 -0.002 c 0.002,-0.01102 0.002,-0.02219 0.004,-0.0332 l 1.25,0.332032 v 3.496093 c 0,0.129219 -0.006,0.238949 -0.0176,0.330079 -0.0107,0.0798 -0.0338,0.14482 -0.0684,0.19922 v 0.002 c -0.0277,0.0462 -0.0707,0.0868 -0.13281,0.12305 -0.0604,0.0352 -0.14799,0.0671 -0.26172,0.0898 -0.0407,0.008 -0.081,0.0229 -0.11133,0.0566 -0.0304,0.0337 -0.0403,0.0836 -0.0352,0.125 v 0.006 l 0.002,0.004 c 0.01,0.0399 0.0345,0.0796 0.0703,0.10352 0.0358,0.0239 0.0761,0.0312 0.11719,0.0312 h 0.002 0.002 c 0.23608,-0.0118 0.47288,-0.008 0.70898,0.01 h 0.002 c 0.24485,0.012 0.48774,0.027 0.72657,0.0449 0.20389,0.0179 0.4113,0.0329 0.62109,0.0449 0.21122,0.0121 0.4216,0.0176 0.63281,0.0176 0.58164,0 1.11181,-0.0686 1.58789,-0.20898 v -0.002 c 0.48273,-0.14665 0.89727,-0.36647 1.24219,-0.66211 0.34502,-0.295732 0.61079,-0.670203 0.79492,-1.117193 0.19104,-0.449856 0.28516,-0.980334 0.28516,-1.587891 v -0.09375 -0.238281 c 0,-0.127753 -0.005,-0.250754 -0.0176,-0.367187 v -0.002 c -0.0191,-0.232982 -0.0888,-0.461663 -0.20703,-0.685547 -0.11721,-0.2221 -0.26529,-0.430471 -0.44336,-0.626953 -0.17152,-0.195845 -0.37039,-0.374618 -0.5957,-0.533204 l -0.002,-0.002 c -0.22423,-0.16343 -0.45842,-0.302474 -0.70117,-0.417968 l -0.002,-0.002 c -0.23762,-0.121667 -0.48004,-0.215947 -0.72461,-0.283203 -0.23986,-0.06766 -0.46911,-0.101562 -0.6875,-0.101562 -0.15084,0 -0.30994,0.0038 -0.47852,0.0098 l 0.004,-0.002 c -0.16968,0 -0.33418,0.0074 -0.49219,0.01953 -0.16783,0.01198 -0.32849,0.02316 -0.48437,0.03516 -0.15401,0.0058 -0.31069,0.0098 -0.4707,0.0098 -0.12984,0 -0.25708,-0.004 -0.38086,-0.0098 h -0.002 c -0.11796,-0.0059 -0.24301,-0.01547 -0.37304,-0.02734 h -0.002 c -0.10188,-0.0059 -0.20659,-0.01153 -0.31445,-0.01758 -0.10934,-0.006 -0.21879,-0.0078 -0.32813,-0.0078 -0.0545,0 -0.11166,0.01982 -0.15039,0.05859 l -0.004,0.0059 -0.004,0.0039 c -0.0344,0.0459 -0.0295,0.116984 -0.004,0.166015 0.0279,0.06659 0.0826,0.119365 0.15234,0.142579 l 0.004,0.002 0.006,0.002 c 0.0558,0.0124 0.11846,0.02299 0.19141,0.03516 l 0.002,0.002 c 0.0385,0.0055 0.0815,0.01397 0.12696,0.02539 0.0376,0.0094 0.0735,0.02459 0.10742,0.04883 0.0287,0.02052 0.0514,0.04921 0.0703,0.0918 l 0.002,0.0039 0.002,0.002 c 0.0204,0.03665 0.0332,0.09524 0.0332,0.175781 v 1.46875 l -1.24805,-0.332031 c 0.0453,-0.258909 0.0845,-0.518388 0.11329,-0.777344 0.0302,-0.277879 0.0486,-0.556064 0.0547,-0.833984 v -0.002 c 0,-0.04244 -0.0152,-0.09101 -0.0508,-0.123047 -0.0356,-0.03203 -0.0806,-0.04102 -0.12305,-0.04102 -0.14563,-0.01171 -0.29387,-0.02748 -0.44531,-0.04492 h -0.004 c -0.15446,-0.02376 -0.3104,-0.04655 -0.46485,-0.07031 -0.20987,-0.02998 -0.42288,-0.05804 -0.63867,-0.08203 h -0.002 c -0.21886,-0.03031 -0.43935,-0.04492 -0.66407,-0.04492 z m 0,0.166016 c 0.21783,0 0.43085,0.01551 0.64258,0.04492 h 0.002 0.002 c 0.21411,0.02379 0.42469,0.05037 0.63281,0.08008 0.15571,0.02395 0.31303,0.0483 0.46875,0.07227 h 0.002 c 0.15665,0.01808 0.31019,0.03287 0.46094,0.04492 l 0.004,0.002 h 0.004 c 0.008,0 0.004,-3.4e-4 0.006,0 -0.006,0.271136 -0.0233,0.543279 -0.0527,0.814453 -0.0278,0.250727 -0.0658,0.501184 -0.10938,0.751953 l -0.0742,-0.01953 c -0.0465,-0.234468 -0.11478,-0.450819 -0.22852,-0.632812 -0.12481,-0.205922 -0.27859,-0.379242 -0.46094,-0.517578 -0.18199,-0.138058 -0.38866,-0.242027 -0.61914,-0.310547 -0.22989,-0.06834 -0.47553,-0.101563 -0.73437,-0.101563 -0.42214,0 -0.80802,0.06709 -1.1543,0.203125 -0.212245,0.0849 -0.373977,0.232409 -0.550781,0.361328 l -0.580078,-0.15625 c 0.108168,-0.08986 0.214712,-0.181022 0.361328,-0.248047 0.204924,-0.09368 0.421384,-0.1698 0.65039,-0.228515 0.229676,-0.05889 0.460101,-0.09952 0.689451,-0.123047 0.23737,-0.02374 0.45051,-0.03711 0.63867,-0.03711 z m 6.25977,0.109375 c 0.20085,0 0.41531,0.0316 0.64258,0.0957 h 0.002 c 0.23377,0.06429 0.46457,0.15416 0.69336,0.271484 l 0.002,0.002 c 0.23472,0.111492 0.46019,0.245546 0.67774,0.404297 l 0.002,0.002 c 0.21651,0.152141 0.4053,0.321457 0.56836,0.507813 h 0.002 c 0.16931,0.186818 0.30761,0.384633 0.41797,0.59375 0.10915,0.206745 0.17249,0.413463 0.18946,0.623047 v 0.002 c 0.0117,0.110596 0.0176,0.228453 0.0176,0.351562 v 0.332031 c 0,0.590263 -0.0912,1.096934 -0.27148,1.521485 h -0.002 c -0.17516,0.426236 -0.42297,0.777998 -0.74805,1.05664 -0.32586,0.27931 -0.72004,0.49004 -1.18359,0.63086 v -0.002 c -0.45822,0.13512 -0.9708,0.20312 -1.53907,0.20312 -0.20801,0 -0.41501,-0.006 -0.62304,-0.0176 -0.20879,-0.012 -0.41443,-0.0271 -0.61719,-0.0449 h -0.002 c -0.23966,-0.0179 -0.48293,-0.0329 -0.72852,-0.0449 -0.24108,-0.0181 -0.48156,-0.0196 -0.72266,-0.008 0.11958,-0.0249 0.22054,-0.0586 0.30079,-0.10547 0.0816,-0.0476 0.14724,-0.10806 0.1914,-0.18164 0.0486,-0.077 0.0785,-0.16644 0.0918,-0.26562 0.0126,-0.10052 0.0195,-0.21727 0.0195,-0.35157 v -3.451171 l 0.77539,0.205078 v 2.904297 0.191406 0.0039 c 0.006,0.08001 0.015,0.158325 0.0273,0.238281 l 0.002,0.002 c 0.0124,0.07447 0.0262,0.146099 0.0449,0.214849 l 0.002,0.004 0.002,0.002 c 0.0266,0.0734 0.0548,0.13134 0.10546,0.17187 l 0.004,0.002 0.002,0.002 c 0.14913,0.10374 0.32801,0.17327 0.53516,0.21093 h 0.002 0.002 c 0.20678,0.0304 0.39173,0.0469 0.55859,0.0469 0.43857,0 0.84241,-0.0591 1.21094,-0.17578 0.36889,-0.11682 0.68622,-0.28957 0.94726,-0.519534 0.2673,-0.236217 0.47495,-0.531092 0.62305,-0.882813 0.13803,-0.327808 0.1971,-0.715942 0.20703,-1.138672 l 0.0156,0.002 v -0.0918 c 0,-0.493718 -0.0821,-0.941564 -0.24805,-1.341797 v -0.002 c -0.15946,-0.39803 -0.3883,-0.73823 -0.68359,-1.015625 -0.2899,-0.283721 -0.64244,-0.502917 -1.05274,-0.65625 h -0.002 c -0.40516,-0.153208 -0.85075,-0.230469 -1.33203,-0.230469 -0.15894,0 -0.31366,0.009 -0.4668,0.02734 -0.14942,0.01868 -0.30053,0.05395 -0.44922,0.103515 l -0.0566,0.01953 v 1.90625 l -0.77539,-0.207032 v -1.513672 c 0,-0.09841 -0.0178,-0.18306 -0.0566,-0.253906 -0.0289,-0.06294 -0.0694,-0.117937 -0.12305,-0.15625 -0.0499,-0.03565 -0.10382,-0.06161 -0.16211,-0.07617 -0.049,-0.01232 -0.0964,-0.02093 -0.14062,-0.02734 h -0.004 c -0.0659,-0.01106 -0.12431,-0.02236 -0.17383,-0.0332 -0.0354,-0.0118 -0.0452,-0.02349 -0.0547,-0.04883 0.004,-8.51e-4 0.005,-0.0039 0.0117,-0.0039 0.10627,0 0.21209,0.0039 0.31836,0.0098 0.10641,0.006 0.20999,0.01172 0.31055,0.01758 0.13281,0.01213 0.2598,0.02135 0.38086,0.02734 0.12714,0.006 0.25761,0.0078 0.39063,0.0078 0.16272,0 0.32364,-0.0018 0.48046,-0.0078 h 0.002 c 0.15555,-0.01197 0.31682,-0.02515 0.48437,-0.03711 h 0.002 c 0.15343,-0.0118 0.31281,-0.01758 0.47851,-0.01758 h 0.002 c 0.16682,-0.0059 0.32403,-0.0078 0.47266,-0.0078 z M 95.875,94.341797 h 0.002 c 0.289726,-0.01094 0.582025,-0.0037 0.876953,0.01563 l 0.002,0.02344 c -0.129382,0.02744 -0.253088,0.06091 -0.351562,0.121094 h -0.002 c -0.129973,0.0841 -0.191407,0.239654 -0.191407,0.429688 v 3.396484 c 10e-7,0.368458 -0.05755,0.711493 -0.173828,1.03125 -0.116246,0.319681 -0.284025,0.596744 -0.503906,0.833987 h -0.002 c -0.213724,0.23683 -0.47152,0.42508 -0.779297,0.56445 -0.305531,0.13836 -0.650018,0.20899 -1.035156,0.20899 -0.290424,0 -0.56754,-0.0442 -0.833985,-0.13086 h -0.002 c -0.261312,-0.0931 -0.502276,-0.21861 -0.722656,-0.375 h -0.002 c -0.220752,-0.16282 -0.413314,-0.3551 -0.582031,-0.576176 -0.16916,-0.227491 -0.303263,-0.470153 -0.402344,-0.732422 l -0.002,-0.0059 -0.002,-0.002 c -0.0045,-0.009 -0.01796,-0.04874 -0.0293,-0.105469 -0.01138,-0.05686 -0.02181,-0.117254 -0.0332,-0.179687 l -0.002,-0.0078 c -0.0059,-0.06204 -0.01401,-0.120662 -0.02539,-0.173828 -0.0058,-0.0588 -0.0078,-0.100134 -0.0078,-0.117187 v -3.566406 c 0,-0.1028 -0.01474,-0.199072 -0.04102,-0.291016 -0.02981,-0.10434 -0.103529,-0.188255 -0.203125,-0.226563 l -0.002,-0.002 c -0.03374,-0.01114 -0.07368,-0.01114 -0.107422,0 l 0.02734,-0.0039 c -0.0088,0 -0.03464,-0.0022 -0.06836,-0.0078 h -0.0039 -0.0039 c -0.07806,-0.0056 -0.158891,-0.02023 -0.244141,-0.04297 -0.05279,-0.01408 -0.05633,-0.03229 -0.06641,-0.05078 l 0.33789,0.0078 c 0.296312,0.01216 0.59237,0.01033 0.888672,-0.0078 h 0.002 c 0.284472,-0.02328 0.57081,-0.02055 0.861329,0.0078 -0.163692,0.01957 -0.302677,0.05782 -0.410157,0.125 h -0.002 c -0.12197,0.08131 -0.171875,0.236069 -0.171875,0.429688 v 0.960937 c 0,0.3169 -0.0038,0.638029 -0.0098,0.960938 -0.0059,0.323912 -0.0078,0.644947 -0.0078,0.96289 0.0059,0.316891 0.0078,0.638038 0.0078,0.960938 0,0.278807 0.04798,0.532732 0.142578,0.759765 0.09369,0.22485 0.223037,0.420302 0.386718,0.583978 0.169685,0.1634 0.368422,0.28933 0.59375,0.37696 h 0.002 c 0.231631,0.0876 0.481435,0.13281 0.748046,0.13281 0.266613,0 0.516417,-0.0452 0.748047,-0.13281 0.236648,-0.0934 0.441285,-0.22102 0.611328,-0.38477 0.176343,-0.163739 0.31219,-0.362338 0.40625,-0.593746 v -0.002 c 0.100236,-0.23249 0.150391,-0.488835 0.150391,-0.767578 v -0.953125 c 0,-0.311964 -0.0038,-0.625426 -0.0098,-0.943359 v -0.449219 c 0,-0.161427 -0.0019,-0.322949 -0.0078,-0.484375 v -0.0039 -0.490235 -0.458984 c 0,-0.1028 -0.01279,-0.199072 -0.03906,-0.291016 -0.02981,-0.10434 -0.103528,-0.188255 -0.203125,-0.226562 h -0.002 l -0.002,-0.002 c -0.03374,-0.01114 -0.07368,-0.01114 -0.107422,0 l 0.02734,-0.0039 c -0.0088,0 -0.03464,-0.0022 -0.06836,-0.0078 h -0.0039 -0.0039 c -0.07881,-0.0056 -0.160844,-0.01826 -0.246094,-0.03516 -0.04864,-0.01345 -0.05458,-0.03122 -0.06445,-0.04883 0.323922,0 0.644938,-0.0038 0.962891,-0.0098 z m 5.0918,0.251953 c 0.24423,0 0.47223,0.03229 0.68554,0.0957 0.21272,0.06324 0.40102,0.155787 0.56641,0.28125 0.16501,0.125182 0.30515,0.283297 0.41992,0.472656 0.0866,0.138639 0.13163,0.314486 0.17578,0.492188 L 99.474609,95.046875 C 99.608556,94.960639 99.72,94.847156 99.875,94.785156 c 0.32451,-0.127483 0.68744,-0.191406 1.0918,-0.191406 z m 5.44336,0.152344 c 0.46431,0 0.88849,0.07294 1.27343,0.21875 0.39152,0.146091 0.72339,0.352243 0.9961,0.61914 v 0.002 c 0.27831,0.260917 0.49293,0.579997 0.64453,0.958985 h 0.002 c 0.14524,0.349646 0.20585,0.750291 0.2168,1.183594 8.8e-4,0.03504 0.0176,0.0601 0.0176,0.0957 0,0.446363 -0.0704,0.832988 -0.20899,1.162109 -0.13938,0.331035 -0.33231,0.605266 -0.58008,0.824219 -0.24204,0.213219 -0.53496,0.375549 -0.88476,0.486329 -0.35016,0.11088 -0.73826,0.16601 -1.16211,0.16601 -0.15597,0 -0.33361,-0.0137 -0.5332,-0.043 h -0.002 c -0.18559,-0.034 -0.33756,-0.0953 -0.46289,-0.18164 -0.009,-0.007 -0.0324,-0.0392 -0.0527,-0.0918 v -0.004 c -5.1e-4,-10e-4 -0.001,-5.7e-4 -0.002,-0.002 -0.0165,-0.0613 -0.0298,-0.12422 -0.041,-0.191407 -0.0114,-0.07383 -0.0196,-0.146933 -0.0254,-0.220703 v -0.0059 -0.18164 -2.859375 l 3.9375,1.046875 -3.9375,-1.048829 V 94.85334 c 0.11964,-0.03647 0.23829,-0.06713 0.35742,-0.08203 0.14633,-0.01756 0.29477,-0.02539 0.44727,-0.02539 z m -7.736332,0.09375 0.580078,0.154297 c -0.103101,0.07572 -0.231625,0.120297 -0.322265,0.210937 -0.242425,0.242424 -0.430974,0.539732 -0.566407,0.890625 l -0.002,0.002 c -0.129737,0.345968 -0.193359,0.730608 -0.193359,1.152344 0,0.440899 0.07731,0.866876 0.230469,1.277344 v 0.002 c 0.159096,0.409978 0.379978,0.774819 0.662109,1.09375 0.282392,0.319219 0.615432,0.575289 0.996087,0.765619 0.38911,0.19147 0.81663,0.28711 1.27735,0.28711 0.26262,0 0.48786,-0.0273 0.67773,-0.084 0.19469,-0.0565 0.36689,-0.14294 0.51367,-0.25782 h 0.002 v -0.002 c 0.14513,-0.11989 0.27098,-0.26717 0.37695,-0.441401 v -0.002 c 0.10019,-0.15599 0.19952,-0.339223 0.29883,-0.539063 l 0.0742,0.0078 c 0.0107,0.07759 0.0195,0.154757 0.0195,0.236328 0,0.171311 -0.0257,0.360417 -0.0781,0.564446 v 0.002 c -0.0464,0.2031 -0.11181,0.38134 -0.19726,0.53515 v -0.004 c -0.005,0.009 0.005,0.006 -0.008,0.006 h -0.008 -0.006 c -0.37554,0.0596 -0.75322,0.10681 -1.13476,0.14257 h -0.002 c -0.37417,0.0416 -0.75433,0.0625 -1.14062,0.0625 -0.48226,0 -0.926696,-0.0746 -1.335935,-0.22656 -0.403965,-0.15807 -0.749779,-0.37666 -1.041016,-0.65625 -0.29097,-0.285143 -0.519887,-0.622766 -0.689453,-1.013667 -0.163186,-0.396308 -0.246094,-0.834824 -0.246094,-1.316406 0,-0.516581 0.09737,-1.011017 0.291016,-1.486328 0.199641,-0.481486 0.479793,-0.905564 0.84375,-1.275391 0.03319,-0.03464 0.08914,-0.05606 0.126953,-0.08789 z m 4.337892,1.152343 0.0723,0.01953 c -0.003,0.01504 -0.005,0.02988 -0.008,0.04492 -1.2e-4,8.3e-5 -0.007,0.0039 -0.0254,0.0039 -0.0145,0 -0.0167,-0.0027 -0.0156,-0.002 10e-4,7.88e-4 4.6e-4,0.0038 -0.002,-0.0059 -0.004,-0.02288 -0.0171,-0.03813 -0.0215,-0.06055 z"
           id="path2" />
      </g>
    </g>
  </g>
</svg>
